# AST/ASF file generated using VICON BodyLanguage
# -----------------------------------------------
:version 1.10
:name VICON
:units
  mass 1.0
  length 0.45
  angle deg
:documentation
   .ast/.asf automatically generated from VICON data using
   VICON BodyBuilder and BodyLanguage model FoxedUp or BRILLIANT.MOD
:root
   order TX TY TZ RX RY RZ
   axis XYZ
   position 0 0 0  
   orientation 0 0 0 
:bonedata
  begin
     id 1 
     name lhipjoint
     direction 0.61886 -0.69539 0.365302 
     length 2.20474 
     axis 0 0 0  XYZ
  end
  begin
     id 2 
     name lfemur
     direction 0.34202 -0.939693 0  
     length 6.65149  
     axis 0 0 20  XYZ
    dof rx ry rz
    limits (-160.0 20.0)
           (-70.0 70.0)
           (-60.0 70.0)
  end
  begin
     id 3 
     name ltibia
     direction 0.34202 -0.939693 0   
     length 6.35814   
     axis 0 0 20   XYZ
    dof rx
    limits (-10.0 170.0)
  end
  begin
     id 4 
     name lfoot
     direction 0.101224 -0.278109 0.955201   
     length 2.18766   
     axis -90 7.62852e-016 20   XYZ
    dof rx rz
    limits (-45.0 90.0)
           (-70.0 20.0)
  end
  begin
     id 5 
     name ltoes
     direction 1.53524e-011 -4.21877e-011 1   
     length 1.09206   
     axis -90 7.62852e-016 20   XYZ
    dof rx
    limits (-90.0 20.0)
  end
  begin
     id 6 
     name rhipjoint
     direction -0.600207 -0.708087 0.371972   
     length 2.1652  
     axis 0 0 0  XYZ 
  end
  begin
     id 7 
     name rfemur
     direction -0.34202 -0.939693 0   
     length 6.54691   
     axis 0 0 -20   XYZ
    dof rx ry rz
    limits (-160.0 20.0)
           (-70.0 70.0)
           (-70.0 60.0)
  end
  begin
     id 8 
     name rtibia
     direction -0.34202 -0.939693 0   
     length 6.37474   
     axis 0 0 -20   XYZ
    dof rx
    limits (-10.0 170.0)
 end
 begin
     id 9 
     name rfoot
     direction -0.111266 -0.3057 0.945604   
     length 2.00903  
     axis -90 -7.62852e-016 -20   XYZ
    dof rx rz
    limits (-45.0 90.0)
           (-20.0 70.0)
  end
  begin
     id 10 
     name rtoes
     direction -1.5362e-011 -4.21913e-011 1   
     length 1.00221   
     axis -90 -7.62852e-016 -20   XYZ
    dof rx
    limits (-90.0 20.0)
  end
  begin
     id 11 
     name lowerback
     direction -0.0224561 0.999731 -0.00577314   
     length 2.10409   
     axis 0 0 0   XYZ
    dof rx ry rz
    limits (-20.0 45.0)
           (-30.0 30.0)
           (-30.0 30.0)
  end
  begin
     id 12 
     name upperback
     direction 0.0213126 0.999185 -0.0342817   
     length 2.09783   
     axis 0 0 0   XYZ
    dof rx ry rz
    limits (-20.0 45.0)
           (-30.0 30.0)
           (-30.0 30.0)
  end
  begin
     id 13 
     name thorax
     direction 0.0312356 0.999036 -0.0308451   
     length 2.09788   
     axis 0 0 0   XYZ
    dof rx ry rz
    limits (-20.0 45.0)
           (-30.0 30.0)
           (-30.0 30.0)
  end
  begin
     id 14 
     name lowerneck
     direction -0.0114419 0.996481 0.0830329   
     length 1.38575   
     axis 0 0 0   XYZ
    dof rx ry rz
    limits (-20.0 45.0)
           (-30.0 30.0)
           (-30.0 30.0)
  end
  begin
     id 15 
     name upperneck
     direction -0.0075675 0.996187 -0.0869092   
     length 1.39401   
     axis 0 0 0   XYZ
    dof rx ry rz
    limits (-20.0 45.0)
           (-30.0 30.0)
           (-30.0 30.0)
  end
  begin
     id 16
     name head
     direction -0.00222073 0.999264 -0.0382974  
     length 1.3964  
     axis 0 0 0   XYZ
    dof rx ry rz
    limits (-20.0 45.0)
           (-30.0 30.0)
           (-30.0 30.0)
  end
  begin
     id 17 
     name lclavicle
     direction 0.965962 0.222138 0.132556  
     length 2.81514  
     axis 0 0 0   XYZ
    dof ry rz
    limits (-20.0 10.0)
           (0.0 20.0)
  end
  begin
     id 18 
     name lhumerus
     direction 1 -4.48972e-011 7.03471e-018   
     length 4.47366   
     axis 180 -30 -90   XYZ
    dof rx ry rz
    limits (-60.0 90.0)
           (-90.0 90.0)
           (-90.0 90.0)
  end
  begin
     id 19
     name lradius
     direction 1 -4.48951e-011 -6.22192e-028   
     length 3.19948   
     axis 180 -30 -90   XYZ
    dof rx
    limits (-10.0 170.0)
  end
  begin
     id 20
     name lwrist
     direction 1 -4.48967e-011 -1.24264e-027   
     length 1.59974   
     axis 1.40095e-015 90 90   XYZ
    dof ry
    limits (-180.0 0.0)
 end
  begin
     id 21 
     name lhand
     direction 1 -4.4897e-011 -2.48528e-027   
     length 0.492667   
     axis 1.58582e-015 90 90   XYZ
    dof rx rz
    limits (-90.0 90.0)
           (-45.0 45.0)
  end
  begin
     id 22 
     name lfingers
     direction 1 -4.48996e-011 -4.97056e-027   
     length 0.397201   
     axis 3.17164e-015 90 90   XYZ
    dof rx
    limits (0.0 90.0)
  end
  begin
     id 23
     name lthumb
     direction 0.707107 -6.34981e-011 0.707107   
     length 0.570303   
     axis -90 45 2.85299e-015   XYZ
    dof rx rz
    limits (-45.0 45.0)
           (-45.0 45.0)
  end
  begin
     id 24 
     name rclavicle
     direction -0.961164 0.229034 0.153972   
     length 3.09348  
     axis 0 0 0   XYZ 
    dof ry rz
    limits (-10.0 20.0)
           (-20.0 0.0)
  end
  begin
     id 25 
     name rhumerus
     direction -1 -4.48971e-011 -9.06263e-028  
     length 4.3269   
     axis 180 30 90   XYZ
    dof rx ry rz
    limits (-90.0 60.0)
           (-90.0 90.0)
           (-90.0 90.0)
  end
  begin
     id 26 
     name rradius
     direction -1 -4.48953e-011 1.44659e-027   
     length 3.1896   
     axis 180 30 90   XYZ
    dof rx
    limits (-10.0 170.0)
  end
  begin
     id 27 
     name rwrist
     direction -1 -4.48988e-011 -1.24264e-027   
     length 1.5948   
     axis 1.40095e-015 -90 -90   XYZ
    dof ry
    limits (-180.0 0.0)
  end
  begin
     id 28
     name rhand
     direction -1 -4.49033e-011 -2.48528e-027   
     length 0.464496   
     axis 1.58582e-015 -90 -90   XYZ
    dof rx rz
    limits (-90.0 90.0)
           (-45.0 45.0)
  end
  begin
     id 29
     name rfingers
     direction -1 -4.48905e-011 -4.97056e-027   
     length 0.374489   
     axis 3.17164e-015 -90 -90   XYZ
    dof rx
    limits (0.0 90.0)
  end
  begin
     id 30
     name rthumb
     direction -0.707107 -6.34909e-011 0.707107   
     length 0.537693   
     axis -90 -45 -2.85299e-015   XYZ
    dof rx rz
    limits (-45.0 45.0)
           (-45.0 45.0)
  end
:hierarchy
  begin
    root lhipjoint rhipjoint lowerback
    lhipjoint lfemur
    lfemur ltibia
    ltibia lfoot
    lfoot ltoes
    rhipjoint rfemur
    rfemur rtibia
    rtibia rfoot
    rfoot rtoes
    lowerback upperback
    upperback thorax
    thorax lowerneck lclavicle rclavicle
    lowerneck upperneck
    upperneck head
    lclavicle lhumerus
    lhumerus lradius
    lradius lwrist
    lwrist lhand lthumb
    lhand lfingers
    rclavicle rhumerus
    rhumerus rradius
    rradius rwrist
    rwrist rhand rthumb
    rhand rfingers
  end

#!OML:ASF G:\acrobat\cartwheel_test 2\Patient 1\Session 2\acrobat4.ASF
:FULLY-SPECIFIED
:DEGREES
1793
root 2.50355 9.48345 -11.574 5.59751 8.96254 7.40919
lowerback 9.29142 1.23129 -3.75159
upperback -5.47862 1.45127 3.0383
thorax -11.3624 1.13638 5.15356
lowerneck -20.8096 0.0774012 -2.05983
upperneck -13.7899 0.605877 -0.190344
head -1.06233 0.421512 0.30967
rclavicle 2.26615e-014 9.54166e-015
rhumerus -9.45475 -27.6839 -8.06366
rradius 32.58
rwrist 3.57591
rhand -16.9817 -33.0001
rfingers 7.12502
rthumb 9.25298 -62.7771
lclavicle 2.26615e-014 9.54166e-015
lhumerus -8.50916 15.201 8.34391
lradius 28.9585
lwrist 19.6519
lhand -26.995 4.9617
lfingers 7.12502
lthumb -0.415227 34.941
rfemur -24.813 -9.28989 -9.42367
rtibia 116.591
rfoot -34.159 -8.01074
rtoes -36.1349
lfemur -75.3103 6.15922 -23.7385
ltibia 115.134
lfoot -38.4739 7.55423
ltoes -25.8703
1794
root 2.4847 9.67397 -11.6153 5.46153 8.79894 7.13841
lowerback 9.12968 1.26028 -3.62151
upperback -5.4601 1.52497 3.15517
thorax -11.2525 1.16446 5.19366
lowerneck -20.818 0.09058 -2.13013
upperneck -13.7232 0.64238 -0.0818848
head -1.03963 0.442781 0.35797
rclavicle 2.18663e-014 2.70347e-014
rhumerus -9.49596 -27.4107 -8.5084
rradius 32.4558
rwrist 3.31921
rhand -16.1278 -32.8719
rfingers 7.12502
rthumb 10.0768 -62.6107
lclavicle 2.18663e-014 2.70347e-014
lhumerus -8.22492 15.0586 8.8565
lradius 29.2081
lwrist 19.3563
lhand -26.8248 4.56701
lfingers 7.12502
lthumb -0.250892 34.5466
rfemur -24.8328 -9.01375 -8.21272
rtibia 114.926
rfoot -33.7579 -7.37187
rtoes -34.4102
lfemur -73.948 5.81131 -23.4186
ltibia 112.956
lfoot -37.9203 8.54814
ltoes -26.3826
1795
root 2.46023 9.8751 -11.6549 5.27093 8.64033 6.88624
lowerback 9.02369 1.27026 -3.54596
upperback -5.44575 1.56236 3.2621
thorax -11.1785 1.17988 5.26109
lowerneck -20.8377 0.0716706 -2.26483
upperneck -13.6564 0.654249 0.118049
head -1.01537 0.455317 0.44512
rclavicle -2.68359e-015 2.38542e-014
rhumerus -9.23721 -28.1568 -9.1842
rradius 31.9647
rwrist 4.27915
rhand -16.889 -33.7594
rfingers 7.12502
rthumb 9.34243 -63.5323
lclavicle -2.68359e-015 2.38542e-014
lhumerus -8.0173 14.8877 9.28944
lradius 29.4615
lwrist 19.0984
lhand -26.8167 4.43335
lfingers 7.12502
lthumb -0.243049 34.413
rfemur -24.7949 -8.50182 -6.97085
rtibia 113.186
rfoot -33.5705 -6.67501
rtoes -32.907
lfemur -72.4658 5.41913 -22.9997
ltibia 110.721
lfoot -37.2933 9.26926
ltoes -26.9447
1796
root 2.42949 10.0734 -11.6971 5.15478 8.4532 6.71231
lowerback 8.82894 1.27385 -3.59656
upperback -5.45756 1.57094 3.32189
thorax -11.08 1.18876 5.35476
lowerneck -20.9209 0.0941034 -2.23447
upperneck -13.3814 0.68347 0.238805
head -0.912026 0.466687 0.481273
rclavicle 2.11706e-014 -2.54444e-014
rhumerus -9.17247 -28.3127 -9.71262
rradius 31.6336
rwrist 5.35955
rhand -17.6474 -35.494
rfingers 7.12502
rthumb 8.61058 -65.2985
lclavicle 2.11706e-014 -2.54444e-014
lhumerus -7.86036 14.5479 9.55282
lradius 29.7518
lwrist 19.172
lhand -26.6891 4.29353
lfingers 7.12502
lthumb -0.119788 34.2732
rfemur -24.6831 -8.0276 -5.83392
rtibia 111.346
rfoot -33.5567 -6.89676
rtoes -32.9858
lfemur -71.1339 5.0107 -22.5779
ltibia 108.503
lfoot -36.468 9.69325
ltoes -26.8513
1797
root 2.39447 10.2605 -11.7462 5.06982 8.17468 6.50167
lowerback 8.62135 1.31514 -3.58834
upperback -5.47596 1.63417 3.33579
thorax -10.984 1.21727 5.35413
lowerneck -21.0269 0.129139 -2.08689
upperneck -13.0389 0.701448 0.274685
head -0.782191 0.466663 0.470555
rclavicle -4.27387e-015 1.43125e-014
rhumerus -9.51976 -28.0624 -9.93442
rradius 31.4636
rwrist 6.74897
rhand -19.73 -38.6666
rfingers 7.12502
rthumb 6.6005 -68.5437
lclavicle -4.27387e-015 1.43125e-014
lhumerus -7.55762 14.3722 9.74139
lradius 29.945
lwrist 19.2803
lhand -26.5434 3.91765
lfingers 7.12502
lthumb 0.0208885 33.8974
rfemur -24.4366 -7.65608 -4.65708
rtibia 109.389
rfoot -33.5199 -8.20337
rtoes -33.6878
lfemur -69.9999 4.7585 -22.1114
ltibia 106.339
lfoot -35.4196 10.0435
ltoes -26.4508
1798
root 2.3572 10.4476 -11.7982 5.00064 7.91884 6.29609
lowerback 8.43238 1.36263 -3.54491
upperback -5.50715 1.70676 3.3163
thorax -10.9117 1.2469 5.29535
lowerneck -20.9875 0.119941 -1.99871
upperneck -12.9665 0.672954 0.343212
head -0.763247 0.448907 0.476238
rclavicle -2.3556e-014 -3.18055e-014
rhumerus -9.86684 -29.0759 -10.0485
rradius 30.7136
rwrist 9.5856
rhand -24.9482 -42.2632
rfingers 7.12502
rthumb 1.56156 -72.2372
lclavicle -2.3556e-014 -3.18055e-014
lhumerus -7.191 14.3124 9.9221
lradius 30.0848
lwrist 19.2305
lhand -26.5719 3.59377
lfingers 7.12502
lthumb -0.00661752 33.5735
rfemur -24.194 -7.3869 -3.55877
rtibia 107.435
rfoot -33.5054 -9.25626
rtoes -33.5211
lfemur -68.888 4.4929 -21.6619
ltibia 104.155
lfoot -34.2909 10.416
ltoes -26.0936
